<?xml version="1.0" encoding="UTF-8"?>
<!DOCTYPE svg PUBLIC "-//W3C//DTD SVG 1.1//EN" "http://www.w3.org/Graphics/SVG/1.1/DTD/svg11.dtd">
<!-- Creator: CorelDRAW 2021 (64 Bit) -->
<svg xmlns="http://www.w3.org/2000/svg" xml:space="preserve" width="550px" height="130px" version="1.1" style="shape-rendering:geometricPrecision; text-rendering:geometricPrecision; image-rendering:optimizeQuality; fill-rule:evenodd; clip-rule:evenodd"
viewBox="0 0 550 130"
 xmlns:xlink="http://www.w3.org/1999/xlink"
 xmlns:xodm="http://www.corel.com/coreldraw/odm/2003">
 <defs>
  <style type="text/css">
   <![CDATA[
    .fil1 {fill:none}
    .fil0 {fill:#C850C0}
    .fil2 {fill:#FFCC70}
    .fil3 {fill:#FFCC70}
   ]]>
  </style>
 </defs>
 <g id="Camada_x0020_1">
  <metadata id="CorelCorpID_0Corel-Layer"/>
  <g id="_1413110902336">
   <path class="fil0" d="M131.99 14.44l4.03 7.5 -0.57 0 -73.17 0 -42.04 0 25.92 52.43 19 38.02 27.65 0 5.76 -11.53 5.76 11.53 26.5 0 42.64 0 48.38 0 10.38 -19.6 23.04 19.6 67.97 0 20.17 -40.9 28.24 14.4 -16.12 32.26c0.57,0.57 0.57,1.74 0,2.31 -0.58,0.57 -1.15,0.57 -1.74,0.57 -1.14,-0.57 -1.14,-1.14 -1.14,-2.31 0,-0.57 0.57,-1.14 1.73,-1.14l15.55 -31.12 -25.35 -12.67 -20.74 40.33 -68.55 0 -23.04 -19 -9.22 19 -49.54 0 -42.64 0 -27.64 0 -4.62 -9.78 -5.19 9.78 -28.81 0 -19.59 -39.16 -27.64 -54.74 44.92 0 70.86 0 -2.31 -5.19c-1.15,0 -1.74,-0.57 -1.74,-1.14 0,-1.14 0,-1.74 1.14,-1.74 0.57,-0.57 1.15,-0.57 1.74,0 0.57,0.58 0.57,1.74 0,2.31l0.02 -0.02z"/>
   <path class="fil0" d="M389.48 127.93l-8.07 -15.54 20.17 0 10.37 -19.6 23.62 19.6 67.4 0 24.19 -48.38 -6.33 -5.19 9.21 0 11.53 -23.62 -16.12 -13.26 -80.64 0 -39.17 0 -40.9 0 -5.76 11.52 -13.26 -11.52 -82.38 0 -18.43 37.45 13.27 11.52 -19.01 0 -2.88 5.76 -18.42 -12.66 9.78 -19 -27.64 -23.05 -25.36 0 -11.52 0 -4.02 -8.07 -14.98 0c-0.57,1.14 -1.14,1.14 -2.31,1.14 -0.57,0 -1.14,-0.57 -1.14,-1.73 0,-0.57 0.57,-1.74 1.14,-1.74 1.15,0 1.74,0 2.31,1.14l16.12 0 3.45 7.5 10.95 0 25.93 0 28.81 24.19 -9.21 19 15.54 10.95 2.31 -5.19 15.55 0 -10.95 -9.21 20.16 -39.76 83.52 0 12.1 10.38 5.19 -10.38 42.04 0 39.17 0 81.23 0 17.29 14.98 -12.67 25.35 -5.76 0 4.02 3.45 -24.76 50.12 -69.14 0 -22.47 -19 -9.79 19 -18.43 0 6.34 13.26c0.57,0 1.14,0.57 1.14,1.14 0,0.58 0,1.15 -0.57,1.15 -0.57,0.57 -1.14,0.57 -1.74,0 0,-0.57 -0.57,-1.15 0,-1.74l-0.02 0.04z"/>
   <path class="fil0" d="M46.71 111.22l12.67 0 -19.59 -39.16 -27.65 -54.74 44.93 0 71.43 0 -2.88 -5.76c-0.58,0 -1.15,-0.57 -1.74,-1.14 0,-0.58 0.57,-1.15 1.14,-1.74 0.57,0 1.15,0 1.74,0.57 0.57,0.57 0.57,1.14 0,1.74l4.02 8.07 -0.57 0 -73.16 0 -42.05 0 25.93 52.43 20.74 40.9 -14.98 0c-0.57,1.14 -1.74,1.14 -2.31,1.14 -0.57,0 -1.74,-1.14 -1.74,-1.74 0,-1.14 0.58,-1.73 1.74,-1.73 0.57,-0.58 1.74,0 2.31,1.14l0.02 0.02z"/>
   <path class="fil0" d="M36.36 117.56l95.63 0 42.64 0 48.38 0 9.79 -20.17 23.62 20.17 67.97 0 20.16 -40.91 13.26 6.34c0.58,-0.58 1.15,-0.58 1.74,0 0.57,0.57 0.57,1.14 0.57,1.73 -0.57,0.57 -1.14,1.15 -1.73,1.15 -0.58,-0.58 -1.15,-0.58 -1.15,-1.74l-12.09 -5.76 -20.17 40.9 -69.14 0 -22.47 -19 -9.21 19 -49.55 0 -42.64 0 -95.04 0c-0.57,0.57 -1.15,1.14 -1.74,0.57 -1.14,0 -1.74,-0.57 -1.74,-1.14 0,-1.14 0.58,-1.74 1.15,-1.74 0.57,-0.57 1.73,0 1.73,0.57l0.03 0.03z"/>
   <path class="fil0" d="M504.12 117.56l41.47 -82.95 -19 -15.55 -163.61 0 -5.19 9.21 -10.95 -9.21 -93.9 0c-0.57,0.57 -1.14,0.57 -1.74,0.57 -0.57,-0.57 -1.14,-1.14 -1.14,-1.74 0,-0.57 0.57,-1.14 1.14,-1.14 0.58,-0.57 1.15,0 1.74,0.57l94.47 0 10.38 8.64 4.03 -8.64 165.32 0 20.17 16.71 -42.05 84.12c0.57,0.57 0.57,1.14 0,1.74 -0.57,0.57 -1.14,1.14 -1.74,0.57 -0.57,0 -1.14,-1.15 -1.14,-1.74 0,-0.57 0.57,-1.14 1.74,-1.14l0 -0.02z"/>
   <polygon class="fil1" points="173.47,111.22 130.83,111.22 105.49,111.22 98.57,97.39 91.66,111.22 66.31,111.22 47.88,73.77 22.52,23.66 62.28,23.66 135.45,23.66 174.61,23.66 199.39,23.66 225.3,45.56 216.09,64.56 236.82,78.96 240.27,72.06 262.18,72.06 246.63,59.37 264.49,23.66 345.13,23.66 359.53,35.75 365.86,23.66 405.62,23.66 444.79,23.66 524.85,23.66 539.26,35.75 528.9,57.08 516.81,57.08 525.45,64.56 501.83,111.22 436.14,111.22 411.38,89.91 401,111.22 361.27,111.22 373.93,84.72 342.82,69.18 322.08,111.22 255.84,111.22 231.65,89.91 221.28,111.22 "/>
   <polygon class="fil2" points="422.91,77.25 417.14,88.77 437.88,106.03 498.95,106.03 519.09,65.72 509.31,57.65 462.07,57.65 464.38,52.46 526.02,52.46 533.5,36.92 523.14,28.27 447.1,28.27 432.12,57.65 443.64,67.44 489.14,67.44 481.66,81.84 449.98,81.84 452.29,77.25 "/>
   <polygon class="fil2" points="368.74,106.03 380.27,83.01 349.17,67.44 368.74,28.27 398.12,28.27 380.27,63.41 388.34,67.44 407.93,28.27 436.72,28.27 398.12,106.03 "/>
   <polygon class="fil2" points="243.16,77.25 237.39,88.77 257.56,106.03 319.2,106.03 339.36,65.72 329.58,57.65 282.34,57.65 284.65,52.46 346.29,52.46 353.77,36.92 343.41,28.27 267.37,28.27 252.39,57.65 263.32,67.44 309.41,67.44 301.91,81.84 270.25,81.84 272.54,77.25 "/>
   <path class="fil2" d="M176.92 28.27l20.74 0 21.88 18.43 -9.79 19.6 21.31 14.4 -12.67 25.35 -80.64 0 39.17 -77.78zm0.57 46.67l-8.07 15.54 9.79 0 8.07 -15.54 -9.79 0zm13.83 -8.64l-9.78 0 10.38 -20.17 9.21 0.57 -9.78 19.6 -0.03 0z"/>
   <polygon class="fil3" points="127.95,106.03 108.35,106.03 98.57,87.03 88.78,106.03 69.19,106.03 30.02,28.27 59.4,28.27 78.97,67.44 86.47,63.41 69.19,28.27 127.95,28.27 110.09,63.41 118.16,67.44 137.73,28.27 167.13,28.27 "/>
  </g>
 </g>
</svg>
